<?xml version="1.0" standalone="no"?><!DOCTYPE svg PUBLIC "-//W3C//DTD SVG 1.1//EN" "http://www.w3.org/Graphics/SVG/1.1/DTD/svg11.dtd"><svg t="1638445526296" class="icon" viewBox="0 0 1024 1024" version="1.1" xmlns="http://www.w3.org/2000/svg" p-id="5313" xmlns:xlink="http://www.w3.org/1999/xlink" width="200" height="200"><defs><style type="text/css"></style></defs><path d="M853.264673 0.096052a48.757319 48.757319 0 0 0-48.75732 48.757319v371.286986L197.966302 8.384796A48.757319 48.757319 0 0 0 147.746263 5.703144 48.757319 48.757319 0 0 0 121.904884 48.853371v926.389066a48.757319 48.757319 0 0 0 25.841379 43.150227A51.195185 51.195185 0 0 0 170.662203 1023.999756a48.757319 48.757319 0 0 0 27.304099-8.288744L804.507353 603.955451V975.242437a48.757319 48.757319 0 0 0 97.514639 0V48.853371a48.757319 48.757319 0 0 0-48.757319-48.757319zM219.419522 883.33489V140.760918L766.476644 512.047904z" fill="#3A3A3A" p-id="5314"></path></svg>