<?xml version="1.0" standalone="no"?><!DOCTYPE svg PUBLIC "-//W3C//DTD SVG 1.1//EN" "http://www.w3.org/Graphics/SVG/1.1/DTD/svg11.dtd"><svg t="1638445491486" class="icon" viewBox="0 0 1024 1024" version="1.1" xmlns="http://www.w3.org/2000/svg" p-id="5181" xmlns:xlink="http://www.w3.org/1999/xlink" width="200" height="200"><defs><style type="text/css"></style></defs><path d="M876.180369 5.703144a48.757319 48.757319 0 0 0-50.220039 2.681652L219.419279 420.140357V48.853371a48.757319 48.757319 0 0 0-97.514639 0v926.389066a48.757319 48.757319 0 0 0 97.514639 0V603.955451l606.541051 411.755561A48.757319 48.757319 0 0 0 853.264429 1023.999756a51.195185 51.195185 0 0 0 22.91594-5.607092A48.757319 48.757319 0 0 0 902.021748 975.242437V48.853371A48.757319 48.757319 0 0 0 876.180369 5.703144z m-71.673259 877.631746L257.449988 512.047904 804.50711 140.760918z" fill="#3A3A3A" p-id="5182"></path></svg>